<svg width="174" height="52" viewBox="0 0 174 52" fill="none" xmlns="http://www.w3.org/2000/svg">
<path d="M43.7277 29.7417C41.4955 29.3094 39.3026 28.6746 37.1734 27.8444C35.3245 27.1372 33.5914 26.129 32.0368 24.8562C30.637 23.7053 29.488 22.2494 28.6677 20.5873C27.8374 18.8204 27.4219 16.868 27.4564 14.8954C27.4324 12.8068 27.8783 10.7421 28.7574 8.87149C29.6141 7.08323 30.7972 5.49208 32.2387 4.18992C33.7341 2.85098 35.4514 1.81687 37.3035 1.14002C39.2346 0.413937 41.2699 0.0464502 43.3195 0.0538196C44.7771 0.0525808 46.231 0.211543 47.6576 0.528143C49.0494 0.830687 50.404 1.30015 51.6951 1.9274C52.9409 2.52856 54.1055 3.30215 55.1584 4.22786C56.1891 5.13545 57.0595 6.22909 57.729 7.458C57.9454 7.8275 58.0789 8.2445 58.1193 8.67702C58.1574 9.08503 58.1317 9.49689 58.043 9.89603C57.9566 10.2889 57.8192 10.6672 57.6348 11.0202C57.4648 11.3511 57.2451 11.6507 56.9843 11.9072C56.6343 12.2648 56.2192 12.5434 55.7641 12.726C55.3091 12.9087 54.8237 12.9916 54.3374 12.9697C53.9294 12.967 53.5235 12.9064 53.1307 12.7894C52.7065 12.6662 52.3079 12.4603 51.9553 12.1823C51.2854 11.5751 50.6528 11.0439 50.0577 10.5885C49.48 10.1394 48.8553 9.76224 48.1959 9.4644C47.5255 9.16665 46.8259 8.94871 46.1099 8.81458C45.2369 8.65959 44.3526 8.58658 43.4675 8.59639C42.4067 8.58707 41.3497 8.73393 40.3272 9.03276C39.4236 9.28836 38.5711 9.71416 37.8105 10.2897C37.129 10.8153 36.5589 11.4858 36.1371 12.2582C35.7235 13.0403 35.5116 13.9235 35.5225 14.8195C35.4845 15.798 35.7753 16.7592 36.3435 17.5326C36.9621 18.3042 37.7382 18.9173 38.6135 19.3256C39.705 19.8569 40.8463 20.2654 42.0185 20.5446C43.324 20.8766 44.7102 21.2086 46.2444 21.5502C47.9717 22.0204 49.6693 22.605 51.3273 23.3004C52.9181 23.9616 54.4061 24.8714 55.7416 25.9993C57.0322 27.1015 58.0911 28.4763 58.8505 30.0358C59.6703 31.8051 60.072 33.7582 60.0214 35.7277C60.0394 37.8515 59.6007 39.9519 58.7384 41.8702C57.884 43.7571 56.6733 45.4391 55.1808 46.8126C53.6102 48.2524 51.7978 49.3674 49.8378 50.0997C47.7178 50.9005 45.4809 51.3003 43.2297 51.2808C41.4022 51.2745 39.5845 50.9999 37.8284 50.4649C36.1832 49.9807 34.6021 49.2795 33.1224 48.3779C31.738 47.5378 30.4762 46.4897 29.3765 45.2663C28.3601 44.1492 27.5182 42.8684 26.8822 41.4717C26.5819 40.873 26.3988 40.2165 26.3439 39.5412C26.3018 38.9818 26.3721 38.4193 26.5502 37.8906C26.7162 37.4004 26.9758 36.9516 27.3129 36.572C27.6374 36.1898 28.0213 35.869 28.4479 35.6234C29.0033 35.2811 29.6311 35.0919 30.2737 35.0731C31.47 35.0731 32.7007 35.9127 33.9658 37.5918C33.9852 37.6159 34.0032 37.6413 34.0197 37.6677C35.0209 39.2164 36.3675 40.4806 37.9406 41.3484C39.6724 42.2641 41.5901 42.7169 43.5258 42.667C44.5638 42.6688 45.5973 42.5236 46.5988 42.2354C47.5561 41.9666 48.4654 41.534 49.2905 40.9548C50.0591 40.4169 50.7118 39.7139 51.2061 38.8914C51.6975 38.0517 51.9498 37.0802 51.9329 36.0929C51.9763 35.0952 51.7152 34.1091 51.1882 33.2802C50.6826 32.5516 50.0277 31.9533 49.2726 31.5299C48.4352 31.0615 47.5461 30.7047 46.6257 30.4675C45.6702 30.2256 44.6967 29.9789 43.7277 29.7417Z" fill="#1B1B1B"/>
<path d="M73.7479 36.2841C73.458 36.2821 73.1733 36.3655 72.9256 36.525C72.678 36.6844 72.4773 36.9137 72.346 37.187C72.2146 37.4603 72.1578 37.7669 72.182 38.0723C72.2062 38.3778 72.3104 38.6702 72.4828 38.9166V38.9403C73.0537 39.7295 73.7379 40.4193 74.5106 40.9846C75.2854 41.5535 76.1389 41.9919 77.0408 42.2843C77.9813 42.5977 78.9616 42.7577 79.9478 42.7586C82.5049 42.7586 84.5147 42.0503 85.9772 40.6336C86.4243 40.2942 86.9134 40.0213 87.4307 39.8225C87.8628 39.659 88.3176 39.5724 88.7765 39.5664C89.4373 39.5575 90.0856 39.7574 90.6383 40.1403C91.5784 40.8082 92.2488 41.8231 92.518 42.9863C92.6285 43.4705 92.6543 43.9721 92.5943 44.4662C92.5271 44.9818 92.3753 45.481 92.1457 45.9413C91.8855 46.4569 91.5227 46.9067 91.0824 47.2599C90.4999 47.8161 89.8775 48.3235 89.2207 48.7778C88.4674 49.295 87.6625 49.7228 86.8206 50.0537C85.8314 50.447 84.8103 50.7439 83.77 50.9407C82.5099 51.1761 81.2319 51.2889 79.9523 51.2775C77.5716 51.2943 75.2134 50.7905 73.0257 49.7976C70.913 48.8469 68.9914 47.4785 67.3641 45.7658C65.7455 44.0466 64.4447 42.0229 63.5285 39.7988C62.596 37.4873 62.1152 35.0002 62.1152 32.4871C62.1152 29.9741 62.596 27.487 63.5285 25.1754C65.3577 20.6822 68.7614 17.1124 73.0257 15.2146C75.2083 14.242 77.5523 13.739 79.9209 13.7349C82.2894 13.7308 84.635 14.2258 86.8206 15.1909C88.9226 16.1307 90.8421 17.4735 92.4821 19.1515C94.1164 20.8324 95.4306 22.8289 96.3537 25.0331C97.3138 27.3151 97.8149 29.7832 97.8251 32.2808C97.8451 32.8234 97.7576 33.3644 97.5684 33.8692C97.3791 34.374 97.0922 34.8314 96.726 35.2121C96.3399 35.5926 95.8859 35.888 95.3907 36.081C94.8954 36.274 94.3688 36.3608 93.8414 36.3363L73.7479 36.2841ZM87.1571 29.1977C87.4408 29.1967 87.7191 29.1146 87.9624 28.9602C88.2057 28.8057 88.405 28.5846 88.5392 28.3202C88.6734 28.0559 88.7376 27.758 88.7249 27.4583C88.7121 27.1585 88.623 26.868 88.467 26.6174L88.2517 26.2806C87.6737 25.4259 86.9622 24.6816 86.1477 24.0797C85.3061 23.4623 84.3739 22.9959 83.3887 22.6995C82.3358 22.3795 81.2452 22.2198 80.1497 22.2251C79.0596 22.2121 77.9738 22.372 76.9286 22.6995C75.9547 23.0127 75.0362 23.4935 74.21 24.1224C73.4118 24.7323 72.7145 25.4776 72.1464 26.328C72.0836 26.4182 72.0253 26.513 71.9669 26.6079C71.8107 26.8578 71.7213 27.1477 71.7083 27.4469C71.6953 27.7461 71.759 28.0435 71.8929 28.3075C72.0267 28.5715 72.2256 28.7924 72.4684 28.9466C72.7113 29.1008 72.9891 29.1826 73.2724 29.1835L87.1571 29.1977Z" fill="#1B1B1B"/>
<path d="M134.325 46.6352C134.33 47.2106 134.221 47.7809 134.006 48.3095C133.806 48.8058 133.522 49.2592 133.168 49.6471C132.817 50.0339 132.391 50.3364 131.92 50.5341C131.431 50.7459 130.906 50.8539 130.377 50.8519C129.835 50.851 129.298 50.7433 128.794 50.5341C128.301 50.3362 127.853 50.0344 127.475 49.6471C127.099 49.2643 126.795 48.8107 126.577 48.3095C126.352 47.784 126.238 47.2123 126.245 46.6352V31.9738C126.24 31.8148 126.252 31.6555 126.281 31.4995C126.239 30.2558 125.987 29.0302 125.537 27.8804C125.109 26.7827 124.49 25.7802 123.711 24.9254C122.943 24.0862 122.029 23.4114 121.019 22.938C119.945 22.4441 118.785 22.1968 117.614 22.2122C116.405 22.2037 115.208 22.4588 114.097 22.9617C113.06 23.4255 112.127 24.1157 111.36 24.987C110.587 25.878 109.979 26.9141 109.566 28.0417C109.128 29.2397 108.908 30.5141 108.915 31.7983V46.6399C108.921 47.2131 108.821 47.782 108.619 48.3143C108.426 48.8143 108.141 49.2689 107.78 49.6519C107.425 50.0325 107.001 50.3341 106.533 50.5389C106.037 50.7546 105.504 50.8627 104.968 50.8566C104.433 50.8571 103.903 50.7493 103.406 50.5389C102.908 50.3381 102.451 50.0368 102.061 49.6519C101.682 49.2721 101.377 48.8177 101.163 48.3143C100.936 47.7891 100.821 47.2174 100.827 46.6399V31.7936C100.787 27.0219 102.519 22.424 105.649 18.9868C107.198 17.2987 109.053 15.9591 111.104 15.0486C113.155 14.1381 115.358 13.6755 117.583 13.6886C119.805 13.6682 122.008 14.1275 124.057 15.0385C126.106 15.9495 127.957 17.2931 129.498 18.9868C132.609 22.4356 134.332 27.0275 134.303 31.7936L134.325 46.6352Z" fill="#1B1B1B"/>
<path d="M172.969 32.6196C172.954 35.1069 172.459 37.5648 171.516 39.8435C169.697 44.3063 166.324 47.8578 162.095 49.7617C159.916 50.7384 157.573 51.2417 155.207 51.2417C152.84 51.2417 150.497 50.7384 148.318 49.7617C146.217 48.8115 144.309 47.4427 142.697 45.7299C141.086 44.005 139.796 41.9742 138.897 39.7439C137.976 37.4325 137.502 34.9498 137.502 32.4417C137.502 29.9337 137.976 27.4509 138.897 25.1395C140.698 20.6539 144.076 17.0828 148.318 15.1787C152.129 13.472 156.385 13.2336 160.345 14.5052C161.142 14.767 161.921 15.0839 162.678 15.4538C162.917 15.5752 163.182 15.6303 163.446 15.614C163.711 15.5977 163.968 15.5106 164.192 15.3608C164.416 15.2109 164.601 15.0033 164.728 14.7574C164.856 14.5115 164.922 14.2354 164.921 13.955V4.459C164.916 3.86114 165.016 3.26746 165.217 2.70875C165.408 2.18165 165.692 1.69845 166.056 1.28577C166.411 0.879813 166.842 0.556689 167.321 0.337127C167.833 0.107367 168.385 -0.0073134 168.941 0.000361266C169.491 -0.0030904 170.036 0.111474 170.542 0.337127C171.029 0.552729 171.467 0.876217 171.825 1.28577C172.192 1.70008 172.482 2.18254 172.682 2.70875C172.897 3.26399 173.006 3.859 173.001 4.459L172.969 32.6196ZM164.894 32.4583C164.902 31.0859 164.642 29.7265 164.132 28.4645C163.641 27.2496 162.932 26.1463 162.046 25.2154C161.157 24.2944 160.115 23.5547 158.973 23.0335C157.783 22.5012 156.505 22.227 155.213 22.227C153.922 22.227 152.643 22.5012 151.454 23.0335C150.31 23.5524 149.268 24.2923 148.381 25.2154C147.494 26.1422 146.791 27.2468 146.313 28.4645C145.319 31.012 145.319 33.8715 146.313 36.4189C146.792 37.6368 147.488 38.7462 148.363 39.687C149.24 40.6255 150.282 41.3732 151.431 41.8879C152.626 42.4296 153.914 42.7041 155.213 42.6942C156.506 42.7061 157.787 42.4314 158.973 41.8879C161.294 40.8354 163.142 38.8764 164.132 36.4189C164.641 35.1633 164.899 33.8101 164.89 32.4441L164.894 32.4583Z" fill="#1B1B1B"/>
<path d="M9.80594 25.7315C8.00108 25.7315 6.35254 25.291 4.86034 24.4098C3.38234 23.5287 2.20278 22.3492 1.32167 20.8712C0.440557 19.379 0 17.7304 0 15.9256C0 14.1207 0.440557 12.4793 1.32167 11.0013C2.20278 9.50907 3.38234 8.32241 4.86034 7.4413C6.35254 6.56019 8.00108 6.11963 9.80594 6.11963C11.6108 6.11963 13.2522 6.56019 14.7302 7.4413C16.2224 8.32241 17.4091 9.50907 18.2902 11.0013C19.1713 12.4793 19.6119 14.1207 19.6119 15.9256C19.6119 17.7304 19.1713 19.379 18.2902 20.8712C17.4091 22.3492 16.2224 23.5287 14.7302 24.4098C13.2522 25.291 11.6108 25.7315 9.80594 25.7315ZM9.80594 21.4681C10.8292 21.4681 11.76 21.2194 12.5985 20.722C13.437 20.2246 14.1049 19.5566 14.6023 18.7181C15.0997 17.8797 15.3484 16.9488 15.3484 15.9256C15.3484 14.9023 15.0997 13.9715 14.6023 13.133C14.1049 12.2945 13.437 11.6266 12.5985 11.1292C11.76 10.6318 10.8292 10.3831 9.80594 10.3831C8.78271 10.3831 7.85186 10.6318 7.01338 11.1292C6.1749 11.6266 5.50696 12.2945 5.00956 13.133C4.51215 13.9715 4.26345 14.9023 4.26345 15.9256C4.26345 16.9488 4.51215 17.8797 5.00956 18.7181C5.50696 19.5566 6.1749 20.2246 7.01338 20.722C7.85186 21.2194 8.78271 21.4681 9.80594 21.4681Z" fill="#FFC24D"/>
<path d="M14.7889 27.39C14.8158 27.2572 14.8248 27.1244 14.8427 26.9916C14.2291 27.614 13.515 28.1152 12.7342 28.4714C11.8491 28.8815 10.8922 29.0899 9.92587 29.0833C8.97567 29.0876 8.03539 28.8791 7.1669 28.4714C6.327 28.0766 5.56579 27.5164 4.92383 26.8208C4.93701 27.0119 4.96097 27.2019 4.99559 27.39L9.21705 50.5417C9.24865 50.7096 9.33433 50.8607 9.45949 50.9693C9.58464 51.0779 9.74155 51.1372 9.90345 51.1372C10.0653 51.1372 10.2223 51.0779 10.3474 50.9693C10.4726 50.8607 10.5582 50.7096 10.5898 50.5417L14.7889 27.39Z" fill="#1D1F22"/>
</svg>
